# xmcd CD database file
#
# Track frame offsets:
#	150
#	16312
#	33785
#	48917
#	60667
#	79710
#	91707
#	102885
#	126072
#	135727
#	157095
#	172412
#	190420
#	205195
#
# Disc length: 2985 seconds
#
# Revision: 0
# Processed by: cddbd v1.4PL0 Copyright (c) Steve Scherf et al.
# Submitted via: CDex 1.50
#
DISCID=b60ba70e
DTITLE=Zé Renato - Filosofia
DYEAR=2002
DGENRE=New Age
TTITLE0=Filosofia
TTITLE1=Cotidiano
TTITLE2=Pela Décima Vez
TTITLE3=Quem Ri Melhor
TTITLE4=Até Pensei
TTITLE5=Três Apitos
TTITLE6=Samba Do Grande Amor
TTITLE7=Ultimo Desejo
TTITLE8=A Rita
TTITLE9=Olhos Nos Olhos
TTITLE10=Feitio De Oração
TTITLE11=Homenagem Ao Malandro
TTITLE12=João Ninguém
TTITLE13=Samba E Amor
EXTD=YEAR: 2002
EXTT0=
EXTT1=
EXTT2=
EXTT3=
EXTT4=
EXTT5=
EXTT6=
EXTT7=
EXTT8=
EXTT9=
EXTT10=
EXTT11=
EXTT12=
EXTT13=
PLAYORDER=
